<mxfile host="app.diagrams.net" modified="2023-12-07T03:40:42.539Z" agent="Mozilla/5.0 (Windows NT 10.0; Win64; x64) AppleWebKit/537.36 (KHTML, like Gecko) Chrome/118.0.0.0 Safari/537.36 OPR/104.0.0.0" version="22.1.4" etag="W2fCyhiXoEONAGms8nGj" type="github">
  <diagram name="Page-1" id="7n9kw6_YKc6hSI4b_pTg">
    <mxGraphModel>
      <root>
        <mxCell id="0" />
        <mxCell id="1" parent="0" />
      </root>
    </mxGraphModel>
  </diagram>
</mxfile>
